<svg xmlns="http://www.w3.org/2000/svg" width="392" height="380" viewBox="0 0 392 380" font-family="Segoe UI, Arial, sans-serif">
<rect width="392" height="380" rx="14" fill="#0d1117" stroke="#30363d"/>
<text x="16" y="38" font-size="17" font-weight="700" fill="#f08228">Minesweeper</text>
<text x="376" y="38" font-size="13" text-anchor="end" fill="#8b949e">wins 0  Â·  losses 0</text>
<rect x="17" y="61" width="28" height="28" rx="4" fill="#161b22"/>
<rect x="47" y="61" width="28" height="28" rx="4" fill="#161b22"/>
<text x="61.0" y="81.0" font-size="17" font-weight="700" text-anchor="middle" fill="#58a6ff">1</text>
<rect x="77" y="61" width="28" height="28" rx="4" fill="#30363d" stroke="#484f58"/>
<line x1="88.0" y1="67.0" x2="88.0" y2="83.0" stroke="#c9d1d9" stroke-width="2"/>
<polygon points="88.0,67.0 98.0,71.0 88.0,75.0" fill="#f08228"/>
<rect x="107" y="61" width="28" height="28" rx="4" fill="#161b22"/>
<text x="121.0" y="81.0" font-size="17" font-weight="700" text-anchor="middle" fill="#58a6ff">1</text>
<rect x="137" y="61" width="28" height="28" rx="4" fill="#161b22"/>
<rect x="167" y="61" width="28" height="28" rx="4" fill="#161b22"/>
<rect x="197" y="61" width="28" height="28" rx="4" fill="#161b22"/>
<rect x="227" y="61" width="28" height="28" rx="4" fill="#161b22"/>
<rect x="257" y="61" width="28" height="28" rx="4" fill="#161b22"/>
<rect x="287" y="61" width="28" height="28" rx="4" fill="#161b22"/>
<text x="301.0" y="81.0" font-size="17" font-weight="700" text-anchor="middle" fill="#58a6ff">1</text>
<rect x="317" y="61" width="28" height="28" rx="4" fill="#30363d" stroke="#484f58"/>
<rect x="347" y="61" width="28" height="28" rx="4" fill="#30363d" stroke="#484f58"/>
<rect x="17" y="91" width="28" height="28" rx="4" fill="#161b22"/>
<rect x="47" y="91" width="28" height="28" rx="4" fill="#161b22"/>
<text x="61.0" y="111.0" font-size="17" font-weight="700" text-anchor="middle" fill="#58a6ff">1</text>
<rect x="77" y="91" width="28" height="28" rx="4" fill="#161b22"/>
<text x="91.0" y="111.0" font-size="17" font-weight="700" text-anchor="middle" fill="#58a6ff">1</text>
<rect x="107" y="91" width="28" height="28" rx="4" fill="#161b22"/>
<text x="121.0" y="111.0" font-size="17" font-weight="700" text-anchor="middle" fill="#3fb950">2</text>
<rect x="137" y="91" width="28" height="28" rx="4" fill="#161b22"/>
<text x="151.0" y="111.0" font-size="17" font-weight="700" text-anchor="middle" fill="#58a6ff">1</text>
<rect x="167" y="91" width="28" height="28" rx="4" fill="#161b22"/>
<text x="181.0" y="111.0" font-size="17" font-weight="700" text-anchor="middle" fill="#58a6ff">1</text>
<rect x="197" y="91" width="28" height="28" rx="4" fill="#161b22"/>
<rect x="227" y="91" width="28" height="28" rx="4" fill="#161b22"/>
<rect x="257" y="91" width="28" height="28" rx="4" fill="#161b22"/>
<text x="271.0" y="111.0" font-size="17" font-weight="700" text-anchor="middle" fill="#58a6ff">1</text>
<rect x="287" y="91" width="28" height="28" rx="4" fill="#161b22"/>
<text x="301.0" y="111.0" font-size="17" font-weight="700" text-anchor="middle" fill="#3fb950">2</text>
<rect x="317" y="91" width="28" height="28" rx="4" fill="#30363d" stroke="#484f58"/>
<rect x="347" y="91" width="28" height="28" rx="4" fill="#30363d" stroke="#484f58"/>
<rect x="17" y="121" width="28" height="28" rx="4" fill="#161b22"/>
<text x="31.0" y="141.0" font-size="17" font-weight="700" text-anchor="middle" fill="#58a6ff">1</text>
<rect x="47" y="121" width="28" height="28" rx="4" fill="#161b22"/>
<text x="61.0" y="141.0" font-size="17" font-weight="700" text-anchor="middle" fill="#58a6ff">1</text>
<rect x="77" y="121" width="28" height="28" rx="4" fill="#161b22"/>
<rect x="107" y="121" width="28" height="28" rx="4" fill="#161b22"/>
<text x="121.0" y="141.0" font-size="17" font-weight="700" text-anchor="middle" fill="#58a6ff">1</text>
<rect x="137" y="121" width="28" height="28" rx="4" fill="#30363d" stroke="#484f58"/>
<line x1="148.0" y1="127.0" x2="148.0" y2="143.0" stroke="#c9d1d9" stroke-width="2"/>
<polygon points="148.0,127.0 158.0,131.0 148.0,135.0" fill="#f08228"/>
<rect x="167" y="121" width="28" height="28" rx="4" fill="#161b22"/>
<text x="181.0" y="141.0" font-size="17" font-weight="700" text-anchor="middle" fill="#58a6ff">1</text>
<rect x="197" y="121" width="28" height="28" rx="4" fill="#161b22"/>
<rect x="227" y="121" width="28" height="28" rx="4" fill="#161b22"/>
<rect x="257" y="121" width="28" height="28" rx="4" fill="#161b22"/>
<text x="271.0" y="141.0" font-size="17" font-weight="700" text-anchor="middle" fill="#58a6ff">1</text>
<rect x="287" y="121" width="28" height="28" rx="4" fill="#30363d" stroke="#484f58"/>
<line x1="298.0" y1="127.0" x2="298.0" y2="143.0" stroke="#c9d1d9" stroke-width="2"/>
<polygon points="298.0,127.0 308.0,131.0 298.0,135.0" fill="#f08228"/>
<rect x="317" y="121" width="28" height="28" rx="4" fill="#161b22"/>
<text x="331.0" y="141.0" font-size="17" font-weight="700" text-anchor="middle" fill="#3fb950">2</text>
<rect x="347" y="121" width="28" height="28" rx="4" fill="#161b22"/>
<text x="361.0" y="141.0" font-size="17" font-weight="700" text-anchor="middle" fill="#58a6ff">1</text>
<rect x="17" y="151" width="28" height="28" rx="4" fill="#30363d" stroke="#484f58"/>
<line x1="28.0" y1="157.0" x2="28.0" y2="173.0" stroke="#c9d1d9" stroke-width="2"/>
<polygon points="28.0,157.0 38.0,161.0 28.0,165.0" fill="#f08228"/>
<rect x="47" y="151" width="28" height="28" rx="4" fill="#161b22"/>
<text x="61.0" y="171.0" font-size="17" font-weight="700" text-anchor="middle" fill="#3fb950">2</text>
<rect x="77" y="151" width="28" height="28" rx="4" fill="#161b22"/>
<text x="91.0" y="171.0" font-size="17" font-weight="700" text-anchor="middle" fill="#58a6ff">1</text>
<rect x="107" y="151" width="28" height="28" rx="4" fill="#161b22"/>
<text x="121.0" y="171.0" font-size="17" font-weight="700" text-anchor="middle" fill="#3fb950">2</text>
<rect x="137" y="151" width="28" height="28" rx="4" fill="#161b22"/>
<text x="151.0" y="171.0" font-size="17" font-weight="700" text-anchor="middle" fill="#58a6ff">1</text>
<rect x="167" y="151" width="28" height="28" rx="4" fill="#161b22"/>
<text x="181.0" y="171.0" font-size="17" font-weight="700" text-anchor="middle" fill="#58a6ff">1</text>
<rect x="197" y="151" width="28" height="28" rx="4" fill="#161b22"/>
<rect x="227" y="151" width="28" height="28" rx="4" fill="#161b22"/>
<text x="241.0" y="171.0" font-size="17" font-weight="700" text-anchor="middle" fill="#58a6ff">1</text>
<rect x="257" y="151" width="28" height="28" rx="4" fill="#161b22"/>
<text x="271.0" y="171.0" font-size="17" font-weight="700" text-anchor="middle" fill="#3fb950">2</text>
<rect x="287" y="151" width="28" height="28" rx="4" fill="#161b22"/>
<text x="301.0" y="171.0" font-size="17" font-weight="700" text-anchor="middle" fill="#3fb950">2</text>
<rect x="317" y="151" width="28" height="28" rx="4" fill="#161b22"/>
<text x="331.0" y="171.0" font-size="17" font-weight="700" text-anchor="middle" fill="#58a6ff">1</text>
<rect x="347" y="151" width="28" height="28" rx="4" fill="#161b22"/>
<rect x="17" y="181" width="28" height="28" rx="4" fill="#161b22"/>
<text x="31.0" y="201.0" font-size="17" font-weight="700" text-anchor="middle" fill="#58a6ff">1</text>
<rect x="47" y="181" width="28" height="28" rx="4" fill="#161b22"/>
<text x="61.0" y="201.0" font-size="17" font-weight="700" text-anchor="middle" fill="#3fb950">2</text>
<rect x="77" y="181" width="28" height="28" rx="4" fill="#30363d" stroke="#484f58"/>
<line x1="88.0" y1="187.0" x2="88.0" y2="203.0" stroke="#c9d1d9" stroke-width="2"/>
<polygon points="88.0,187.0 98.0,191.0 88.0,195.0" fill="#f08228"/>
<rect x="107" y="181" width="28" height="28" rx="4" fill="#161b22"/>
<text x="121.0" y="201.0" font-size="17" font-weight="700" text-anchor="middle" fill="#58a6ff">1</text>
<rect x="137" y="181" width="28" height="28" rx="4" fill="#161b22"/>
<rect x="167" y="181" width="28" height="28" rx="4" fill="#161b22"/>
<rect x="197" y="181" width="28" height="28" rx="4" fill="#161b22"/>
<rect x="227" y="181" width="28" height="28" rx="4" fill="#161b22"/>
<text x="241.0" y="201.0" font-size="17" font-weight="700" text-anchor="middle" fill="#58a6ff">1</text>
<rect x="257" y="181" width="28" height="28" rx="4" fill="#30363d" stroke="#484f58"/>
<line x1="268.0" y1="187.0" x2="268.0" y2="203.0" stroke="#c9d1d9" stroke-width="2"/>
<polygon points="268.0,187.0 278.0,191.0 268.0,195.0" fill="#f08228"/>
<rect x="287" y="181" width="28" height="28" rx="4" fill="#161b22"/>
<text x="301.0" y="201.0" font-size="17" font-weight="700" text-anchor="middle" fill="#3fb950">2</text>
<rect x="317" y="181" width="28" height="28" rx="4" fill="#161b22"/>
<text x="331.0" y="201.0" font-size="17" font-weight="700" text-anchor="middle" fill="#3fb950">2</text>
<rect x="347" y="181" width="28" height="28" rx="4" fill="#161b22"/>
<text x="361.0" y="201.0" font-size="17" font-weight="700" text-anchor="middle" fill="#58a6ff">1</text>
<rect x="17" y="211" width="28" height="28" rx="4" fill="#161b22"/>
<rect x="47" y="211" width="28" height="28" rx="4" fill="#161b22"/>
<text x="61.0" y="231.0" font-size="17" font-weight="700" text-anchor="middle" fill="#58a6ff">1</text>
<rect x="77" y="211" width="28" height="28" rx="4" fill="#161b22"/>
<text x="91.0" y="231.0" font-size="17" font-weight="700" text-anchor="middle" fill="#58a6ff">1</text>
<rect x="107" y="211" width="28" height="28" rx="4" fill="#161b22"/>
<text x="121.0" y="231.0" font-size="17" font-weight="700" text-anchor="middle" fill="#58a6ff">1</text>
<rect x="137" y="211" width="28" height="28" rx="4" fill="#161b22"/>
<rect x="167" y="211" width="28" height="28" rx="4" fill="#161b22"/>
<rect x="197" y="211" width="28" height="28" rx="4" fill="#161b22"/>
<rect x="227" y="211" width="28" height="28" rx="4" fill="#161b22"/>
<text x="241.0" y="231.0" font-size="17" font-weight="700" text-anchor="middle" fill="#58a6ff">1</text>
<rect x="257" y="211" width="28" height="28" rx="4" fill="#161b22"/>
<text x="271.0" y="231.0" font-size="17" font-weight="700" text-anchor="middle" fill="#3fb950">2</text>
<rect x="287" y="211" width="28" height="28" rx="4" fill="#30363d" stroke="#484f58"/>
<line x1="298.0" y1="217.0" x2="298.0" y2="233.0" stroke="#c9d1d9" stroke-width="2"/>
<polygon points="298.0,217.0 308.0,221.0 298.0,225.0" fill="#f08228"/>
<rect x="317" y="211" width="28" height="28" rx="4" fill="#161b22"/>
<text x="331.0" y="231.0" font-size="17" font-weight="700" text-anchor="middle" fill="#f85149">3</text>
<rect x="347" y="211" width="28" height="28" rx="4" fill="#30363d" stroke="#484f58"/>
<rect x="17" y="241" width="28" height="28" rx="4" fill="#161b22"/>
<rect x="47" y="241" width="28" height="28" rx="4" fill="#161b22"/>
<rect x="77" y="241" width="28" height="28" rx="4" fill="#161b22"/>
<rect x="107" y="241" width="28" height="28" rx="4" fill="#161b22"/>
<rect x="137" y="241" width="28" height="28" rx="4" fill="#161b22"/>
<rect x="167" y="241" width="28" height="28" rx="4" fill="#161b22"/>
<rect x="197" y="241" width="28" height="28" rx="4" fill="#161b22"/>
<rect x="227" y="241" width="28" height="28" rx="4" fill="#161b22"/>
<rect x="257" y="241" width="28" height="28" rx="4" fill="#161b22"/>
<text x="271.0" y="261.0" font-size="17" font-weight="700" text-anchor="middle" fill="#58a6ff">1</text>
<rect x="287" y="241" width="28" height="28" rx="4" fill="#161b22"/>
<text x="301.0" y="261.0" font-size="17" font-weight="700" text-anchor="middle" fill="#58a6ff">1</text>
<rect x="317" y="241" width="28" height="28" rx="4" fill="#161b22"/>
<text x="331.0" y="261.0" font-size="17" font-weight="700" text-anchor="middle" fill="#f85149">3</text>
<rect x="347" y="241" width="28" height="28" rx="4" fill="#30363d" stroke="#484f58"/>
<rect x="17" y="271" width="28" height="28" rx="4" fill="#161b22"/>
<rect x="47" y="271" width="28" height="28" rx="4" fill="#161b22"/>
<text x="61.0" y="291.0" font-size="17" font-weight="700" text-anchor="middle" fill="#58a6ff">1</text>
<rect x="77" y="271" width="28" height="28" rx="4" fill="#161b22"/>
<text x="91.0" y="291.0" font-size="17" font-weight="700" text-anchor="middle" fill="#58a6ff">1</text>
<rect x="107" y="271" width="28" height="28" rx="4" fill="#161b22"/>
<text x="121.0" y="291.0" font-size="17" font-weight="700" text-anchor="middle" fill="#3fb950">2</text>
<rect x="137" y="271" width="28" height="28" rx="4" fill="#161b22"/>
<text x="151.0" y="291.0" font-size="17" font-weight="700" text-anchor="middle" fill="#58a6ff">1</text>
<rect x="167" y="271" width="28" height="28" rx="4" fill="#161b22"/>
<text x="181.0" y="291.0" font-size="17" font-weight="700" text-anchor="middle" fill="#58a6ff">1</text>
<rect x="197" y="271" width="28" height="28" rx="4" fill="#161b22"/>
<text x="211.0" y="291.0" font-size="17" font-weight="700" text-anchor="middle" fill="#58a6ff">1</text>
<rect x="227" y="271" width="28" height="28" rx="4" fill="#161b22"/>
<text x="241.0" y="291.0" font-size="17" font-weight="700" text-anchor="middle" fill="#58a6ff">1</text>
<rect x="257" y="271" width="28" height="28" rx="4" fill="#161b22"/>
<text x="271.0" y="291.0" font-size="17" font-weight="700" text-anchor="middle" fill="#58a6ff">1</text>
<rect x="287" y="271" width="28" height="28" rx="4" fill="#161b22"/>
<text x="301.0" y="291.0" font-size="17" font-weight="700" text-anchor="middle" fill="#58a6ff">1</text>
<rect x="317" y="271" width="28" height="28" rx="4" fill="#161b22"/>
<text x="331.0" y="291.0" font-size="17" font-weight="700" text-anchor="middle" fill="#3fb950">2</text>
<rect x="347" y="271" width="28" height="28" rx="4" fill="#30363d" stroke="#484f58"/>
<rect x="17" y="301" width="28" height="28" rx="4" fill="#161b22"/>
<rect x="47" y="301" width="28" height="28" rx="4" fill="#161b22"/>
<text x="61.0" y="321.0" font-size="17" font-weight="700" text-anchor="middle" fill="#58a6ff">1</text>
<rect x="77" y="301" width="28" height="28" rx="4" fill="#30363d" stroke="#484f58"/>
<line x1="88.0" y1="307.0" x2="88.0" y2="323.0" stroke="#c9d1d9" stroke-width="2"/>
<polygon points="88.0,307.0 98.0,311.0 88.0,315.0" fill="#f08228"/>
<rect x="107" y="301" width="28" height="28" rx="4" fill="#161b22"/>
<text x="121.0" y="321.0" font-size="17" font-weight="700" text-anchor="middle" fill="#3fb950">2</text>
<rect x="137" y="301" width="28" height="28" rx="4" fill="#30363d" stroke="#484f58"/>
<line x1="148.0" y1="307.0" x2="148.0" y2="323.0" stroke="#c9d1d9" stroke-width="2"/>
<polygon points="148.0,307.0 158.0,311.0 148.0,315.0" fill="#f08228"/>
<rect x="167" y="301" width="28" height="28" rx="4" fill="#161b22"/>
<text x="181.0" y="321.0" font-size="17" font-weight="700" text-anchor="middle" fill="#58a6ff">1</text>
<rect x="197" y="301" width="28" height="28" rx="4" fill="#161b22"/>
<text x="211.0" y="321.0" font-size="17" font-weight="700" text-anchor="middle" fill="#58a6ff">1</text>
<rect x="227" y="301" width="28" height="28" rx="4" fill="#30363d" stroke="#484f58"/>
<line x1="238.0" y1="307.0" x2="238.0" y2="323.0" stroke="#c9d1d9" stroke-width="2"/>
<polygon points="238.0,307.0 248.0,311.0 238.0,315.0" fill="#f08228"/>
<rect x="257" y="301" width="28" height="28" rx="4" fill="#161b22"/>
<text x="271.0" y="321.0" font-size="17" font-weight="700" text-anchor="middle" fill="#58a6ff">1</text>
<rect x="287" y="301" width="28" height="28" rx="4" fill="#161b22"/>
<text x="301.0" y="321.0" font-size="17" font-weight="700" text-anchor="middle" fill="#58a6ff">1</text>
<rect x="317" y="301" width="28" height="28" rx="4" fill="#30363d" stroke="#484f58"/>
<rect x="347" y="301" width="28" height="28" rx="4" fill="#30363d" stroke="#484f58"/>
<text x="16" y="358" font-size="13" fill="#8b949e">playing...</text>
<text x="376" y="358" font-size="12" text-anchor="end" fill="#6e7681">plays itself every 5 minutes</text>
</svg>